<?xml version="1.0" ?><svg height="24px" version="1.1" viewBox="0 0 24 24" width="24px" xmlns="http://www.w3.org/2000/svg" xmlns:sketch="http://www.bohemiancoding.com/sketch/ns" xmlns:xlink="http://www.w3.org/1999/xlink"><title/><desc/><defs/><g fill="none" fill-rule="evenodd" id="miu" stroke="none" stroke-width="1"><g id="Artboard-1" transform="translate(-359.000000, -119.000000)"><g id="slice" transform="translate(215.000000, 119.000000)"/><path d="M361.181376,129 C362.121889,123.879764 366.60786,120 372,120 C378.075133,120 383,124.924867 383,131 C383,137.075133 378.075133,142 372,142 C367.727268,142 364.023517,139.563904 362.201917,136.004883 L363.340648,136.004883 C365.070389,138.991197 368.300604,141 372,141 C377.522848,141 382,136.522848 382,131 C382,125.477152 377.522848,121 372,121 C367.162084,121 363.126577,124.435519 362.200036,129 L361.181376,129 Z M371.5,131.349626 L376.710685,134.421329 L377.218515,133.559872 L372.5,130.754395 L372.5,124.031738 L371.5,124.031738 L371.5,131.349626 Z M361.5,132 L364,129 L359,129 L361.5,132 Z" fill="#000000" id="circle-backup-time-history-recent-time-machine-outline-stroke"/></g></g></svg>